<?xml version="1.0" standalone="no"?>
<!DOCTYPE svg PUBLIC "-//W3C//DTD SVG 20010904//EN"
 "http://www.w3.org/TR/2001/REC-SVG-20010904/DTD/svg10.dtd">
<svg version="1.0" xmlns="http://www.w3.org/2000/svg"
 width="1562.000000pt" height="472.000000pt" viewBox="0 0 1562.000000 472.000000"
 preserveAspectRatio="xMidYMid meet">

<g transform="translate(0.000000,472.000000) scale(0.100000,-0.100000)"
fill="#000000" stroke="none">
<path d="M12695 3598 c-9 -29 -55 -231 -55 -244 0 -11 28 -14 159 -14 143 0
160 2 165 18 9 30 56 233 56 243 0 15 -320 12 -325 -3z"/>
<path d="M2445 3305 c-54 -19 -114 -87 -147 -166 -15 -35 -184 -422 -377 -859
-234 -529 -351 -806 -351 -828 0 -25 9 -43 34 -68 l34 -34 410 0 410 0 183
413 c242 543 237 532 274 532 27 0 34 -9 98 -120 38 -66 74 -123 80 -127 33
-21 70 -4 238 112 96 66 181 120 190 120 17 0 49 -30 49 -47 0 -5 -85 -206
-189 -446 l-188 -437 348 0 c192 0 349 -2 349 -4 0 -2 -52 -122 -115 -266 -96
-219 -114 -267 -107 -289 17 -50 30 -52 407 -49 317 3 352 5 376 21 20 13 56
86 148 292 66 152 121 280 121 285 0 6 106 10 290 10 333 0 334 0 370 77 72
154 180 406 180 422 0 10 -8 26 -19 35 -17 15 -48 17 -320 14 l-301 -3 -25
-26 c-14 -14 -68 -122 -120 -240 l-94 -214 -336 -3 c-208 -1 -335 1 -335 7 0
6 9 25 19 43 11 18 112 242 224 498 113 256 279 635 371 842 167 379 181 421
156 469 -28 51 16 49 -1182 49 -928 -1 -1120 -3 -1153 -15z"/>
<path d="M8460 3260 c-176 -33 -303 -144 -359 -313 -22 -68 -71 -268 -71 -292
0 -13 24 -15 158 -15 l158 0 33 135 c19 78 42 146 53 161 27 33 61 46 93 34
47 -18 44 -42 -36 -381 l-31 -129 -236 -2 -237 -3 -57 -245 c-57 -247 -66
-325 -48 -391 37 -133 195 -207 384 -180 169 24 280 108 360 274 50 102 60
140 175 644 93 402 99 469 57 558 -47 100 -128 146 -266 151 -47 2 -105 -1
-130 -6z m-60 -1049 c0 -16 -41 -181 -51 -209 -18 -48 -49 -72 -91 -72 -60 0
-67 27 -39 153 12 56 25 110 27 120 5 14 17 17 80 17 41 0 74 -4 74 -9z"/>
<path d="M11293 3255 c-135 -29 -256 -125 -313 -247 -22 -48 -100 -331 -100
-364 0 -2 72 -3 161 -2 l161 3 33 131 c18 72 40 143 50 157 24 37 72 52 102
32 34 -23 30 -68 -25 -300 l-47 -200 -237 -3 -236 -2 -21 -88 c-106 -456 -113
-511 -73 -588 29 -57 90 -108 153 -130 112 -37 292 -18 396 43 89 52 177 174
224 312 11 30 63 242 116 470 85 361 98 428 98 506 0 82 -3 95 -31 145 -68
121 -218 167 -411 125z m-41 -1040 c6 -6 -36 -186 -53 -228 -15 -36 -46 -57
-84 -57 -40 0 -55 16 -55 60 0 30 31 178 45 218 4 12 135 18 147 7z"/>
<path d="M6735 3238 c-2 -7 -83 -357 -180 -777 -96 -420 -178 -774 -181 -787
l-6 -24 145 0 145 0 25 108 c14 59 72 309 128 556 57 246 105 435 107 419 2
-16 -11 -252 -28 -524 -16 -272 -30 -509 -30 -526 l0 -33 143 0 142 0 219 560
c120 308 220 559 222 557 3 -2 -239 -1056 -252 -1099 -5 -17 6 -18 143 -18
l148 0 93 408 c51 224 93 415 93 424 -1 9 37 182 84 384 47 203 85 372 85 376
0 5 -109 7 -242 6 l-241 -3 -176 -477 c-96 -262 -177 -476 -178 -474 -3 3 72
838 82 914 l6 42 -246 0 c-188 0 -247 -3 -250 -12z"/>
<path d="M9145 3238 c-2 -7 -83 -357 -180 -777 -96 -420 -178 -774 -181 -787
l-6 -25 163 3 163 3 58 250 c32 138 70 301 84 363 l26 112 32 0 c38 0 76 -24
76 -48 0 -10 -31 -153 -69 -317 -38 -165 -72 -315 -76 -332 l-7 -33 156 0 155
0 10 38 c6 20 40 163 77 317 86 361 87 419 12 465 l-31 18 39 20 c50 26 106
85 134 141 29 57 67 210 80 320 18 143 -12 225 -94 262 -37 17 -70 19 -329 19
-221 0 -289 -3 -292 -12z m373 -290 c31 -31 -6 -217 -53 -264 -19 -19 -35 -24
-75 -24 -47 0 -50 1 -45 23 3 12 17 74 30 137 14 63 28 121 30 128 6 16 97 16
113 0z"/>
<path d="M9912 2463 c-100 -434 -182 -794 -182 -801 0 -10 35 -12 157 -10
l158 3 85 370 85 369 3 -372 2 -372 166 0 166 0 -7 438 -7 437 171 359 c94
197 171 361 171 363 0 2 -72 2 -161 1 l-161 -3 -141 -307 c-78 -168 -143 -305
-145 -304 -2 2 97 445 133 594 l5 22 -158 0 -159 0 -181 -787z"/>
<path d="M11967 3128 c-15 -68 -30 -133 -33 -145 l-6 -23 165 -2 165 -3 -301
-510 -302 -510 -29 -130 c-16 -72 -31 -136 -33 -142 -4 -10 68 -13 340 -13
321 0 346 1 351 18 12 39 56 242 56 256 0 14 -23 16 -176 16 -97 0 -174 4
-172 8 2 5 140 238 307 517 l305 509 31 138 32 138 -336 0 -337 0 -27 -122z"/>
<path d="M12621 2458 c-100 -436 -181 -796 -181 -800 0 -5 69 -8 153 -8 l152
0 179 778 c99 427 181 787 184 800 l4 22 -154 0 -154 0 -183 -792z"/>
<path d="M5748 3099 c-28 -11 -31 -16 -109 -191 -29 -66 -47 -119 -44 -130 6
-17 21 -18 209 -18 181 0 205 2 218 18 21 22 128 270 128 293 0 10 -9 23 -19
29 -25 13 -346 12 -383 -1z"/>
<path d="M4877 2548 c-12 -13 -53 -94 -91 -180 -57 -130 -66 -161 -56 -173 10
-13 48 -15 230 -15 193 0 220 2 238 18 24 20 152 306 152 338 0 12 -7 25 -16
28 -9 3 -110 6 -225 6 -204 0 -210 -1 -232 -22z"/>
<path d="M7829 1174 c-18 -6 -49 -55 -49 -79 0 -34 38 -80 77 -94 52 -18 73
-39 73 -71 0 -42 -21 -53 -90 -48 -50 4 -60 2 -58 -11 7 -38 126 -34 165 5 24
24 30 71 13 103 -5 10 -33 28 -62 41 -29 12 -61 29 -70 38 -26 22 -22 59 8 78
21 14 33 15 70 7 45 -11 67 -2 46 19 -12 12 -97 20 -123 12z"/>
<path d="M10364 1171 c-28 -12 -54 -49 -54 -77 0 -32 42 -77 86 -93 53 -18 74
-39 74 -71 0 -42 -21 -53 -95 -48 -55 3 -65 1 -63 -11 4 -19 62 -32 113 -24
50 8 85 42 85 83 0 47 -14 65 -72 90 -29 12 -61 29 -70 38 -26 22 -22 59 8 78
21 14 33 15 70 7 45 -11 67 -2 46 19 -14 14 -102 20 -128 9z"/>
<path d="M10974 1161 c-17 -11 -34 -31 -38 -46 -11 -45 13 -77 86 -114 74 -38
88 -59 63 -98 -16 -24 -21 -25 -86 -21 -58 3 -69 1 -67 -11 4 -19 62 -32 111
-24 58 9 87 37 87 84 0 47 -26 77 -86 98 -51 18 -74 39 -74 67 0 47 65 65 136
37 9 -3 14 2 14 15 0 35 -96 44 -146 13z"/>
<path d="M6530 1010 l0 -160 90 0 c73 0 90 3 90 15 0 12 -15 15 -75 15 l-75 0
0 60 0 60 70 0 c55 0 70 3 70 15 0 11 -16 15 -67 17 l-68 3 -3 53 -3 52 75 0
c61 0 76 3 76 15 0 12 -17 15 -90 15 l-90 0 0 -160z"/>
<path d="M7150 1010 c0 -130 3 -160 14 -160 10 0 15 18 18 66 4 59 15 83 39
84 3 0 30 -34 60 -75 40 -56 60 -75 78 -75 l23 0 -24 33 c-13 17 -44 58 -68
90 l-43 58 24 27 c13 15 41 46 63 70 36 37 38 42 19 42 -14 0 -45 -26 -90 -75
-37 -41 -71 -75 -75 -75 -5 0 -8 34 -8 75 0 60 -3 75 -15 75 -13 0 -15 -24
-15 -160z"/>
<path d="M8410 1010 c0 -136 2 -160 15 -160 11 0 15 13 15 53 0 28 4 57 8 63
4 6 31 13 60 16 71 7 102 35 102 95 0 33 -6 50 -25 68 -21 22 -33 25 -100 25
l-75 0 0 -160z m143 118 c9 -7 19 -25 22 -40 5 -21 1 -33 -19 -53 -22 -21 -34
-26 -69 -23 l-42 3 -3 49 c-2 27 -1 55 2 62 7 18 86 19 109 2z"/>
<path d="M9050 1011 c0 -154 1 -161 20 -161 18 0 20 7 20 66 l0 65 37 -3 c35
-3 41 -8 73 -65 27 -49 40 -63 59 -63 22 0 22 1 9 23 -8 12 -27 43 -42 70
l-28 47 32 30 c29 27 32 35 27 72 -8 62 -25 72 -122 77 l-85 3 0 -161z m154
113 c9 -8 16 -28 16 -44 0 -42 -24 -60 -81 -60 l-49 0 0 60 0 60 49 0 c32 0
55 -6 65 -16z"/>
<path d="M9710 1010 l0 -160 90 0 c73 0 90 3 90 15 0 12 -15 15 -75 15 l-75 0
0 60 0 60 70 0 c55 0 70 3 70 15 0 11 -16 15 -67 17 l-68 3 -3 53 -3 52 75 0
c61 0 76 3 76 15 0 12 -17 15 -90 15 l-90 0 0 -160z"/>
</g>
</svg>
